# xmcd
#
# Track frame offsets:
#      150
#      10077
#      27183
#      42093
#      60399
#      75539
#      92044
#      107180
#      117074
#      136976
# 
# Disc length: 2015 seconds
#
# Revision: 2
# Processed by: cddbd v1.4PL0 Copyright (c) Steve Scherf et al.
#
# Submitted via: FreeRIP 1.20
#
DISCID=6f07dd0a
DTITLE=White Zombie - Living Dead Girl
DYEAR=1900
DGENRE=blues
TTITLE0=hit mania dance champions 2001
TTITLE1=
TTITLE2=
TTITLE3=
TTITLE4=
TTITLE5=
TTITLE6=
TTITLE7=
TTITLE8=
TTITLE9=
EXTD=
EXTT0=
EXTT1=
EXTT2=
EXTT3=
EXTT4=
EXTT5=
EXTT6=
EXTT7=
EXTT8=
EXTT9=
PLAYORDER=
